#Exported from google sketchup
mtllib D:\Creations\wwg\Proteus\Resources\Models/tower.mtl
  v   0.3000   3.0000  -0.3000
  v  -0.3000   3.0000  -0.3000
  v   0.0000   3.0000   0.0000
  v   0.3000   3.0000   0.3000
  v  -0.3000   3.0000   0.3000
  v  -0.5000   0.0000   0.5000
  v  -0.5000   0.0000  -0.5000
  v   0.5000   0.0000  -0.5000
  v   0.3000   3.0665  -0.1860
  v   0.3000   3.0380  -0.2145
  v   0.3000   3.0665  -0.2145
  v   0.3000   3.0950  -0.1575
  v   0.3000   3.0950  -0.1860
  v   0.3000   3.0665  -0.0720
  v   0.3000   3.0380  -0.1005
  v   0.3000   3.0665  -0.1005
  v   0.3000   3.0950  -0.0435
  v   0.3000   3.0950  -0.0720
  v   0.3000   3.0665   0.0420
  v   0.3000   3.0380   0.0135
  v   0.3000   3.0665   0.0135
  v   0.3000   3.0950   0.0705
  v   0.3000   3.0950   0.0420
  v   0.3000   3.0665   0.1560
  v   0.3000   3.0380   0.1275
  v   0.3000   3.0665   0.1275
  v   0.3000   3.0950   0.1845
  v   0.3000   3.0950   0.1560
  v   0.3000   3.0665   0.2700
  v   0.3000   3.0380   0.2415
  v   0.3000   3.0665   0.2415
  v   0.3000   3.0950   0.2985
  v   0.3000   3.0950   0.2700
  v   0.3000   3.0950  -0.2715
  v   0.3000   3.0950  -0.3000
  v   0.3000   3.0665  -0.2715
  v   0.3000   3.0380  -0.2430
  v   0.3000   3.0665  -0.2430
  v   0.3000   3.0380  -0.1290
  v   0.3000   3.0665  -0.1575
  v   0.3000   3.0665  -0.1290
  v   0.3000   3.0380  -0.0150
  v   0.3000   3.0665  -0.0435
  v   0.3000   3.0665  -0.0150
  v   0.3000   3.0380   0.0990
  v   0.3000   3.0665   0.0705
  v   0.3000   3.0665   0.0990
  v   0.3000   3.0380   0.2130
  v   0.3000   3.0665   0.1845
  v   0.3000   3.0665   0.2130
  v   0.2430   3.0380  -0.3000
  v   0.2715   3.0665  -0.3000
  v   0.2715   3.0950  -0.3000
  v   0.2430   3.0665  -0.3000
  v   0.1860   3.0950  -0.3000
  v   0.1575   3.0665  -0.3000
  v   0.1860   3.0665  -0.3000
  v   0.1575   3.0950  -0.3000
  v   0.2145   3.0665  -0.3000
  v   0.1290   3.0380  -0.3000
  v   0.2145   3.0380  -0.3000
  v   0.1290   3.0665  -0.3000
  v   0.0720   3.0950  -0.3000
  v   0.0435   3.0665  -0.3000
  v   0.0720   3.0665  -0.3000
  v   0.0435   3.0950  -0.3000
  v   0.1005   3.0665  -0.3000
  v   0.0150   3.0380  -0.3000
  v   0.1005   3.0380  -0.3000
  v   0.0150   3.0665  -0.3000
  v  -0.0420   3.0950  -0.3000
  v  -0.0705   3.0665  -0.3000
  v  -0.0420   3.0665  -0.3000
  v  -0.0705   3.0950  -0.3000
  v  -0.0135   3.0665  -0.3000
  v  -0.0990   3.0380  -0.3000
  v  -0.0135   3.0380  -0.3000
  v  -0.0990   3.0665  -0.3000
  v  -0.1560   3.0950  -0.3000
  v  -0.1845   3.0665  -0.3000
  v  -0.1560   3.0665  -0.3000
  v  -0.1845   3.0950  -0.3000
  v  -0.1275   3.0665  -0.3000
  v  -0.2130   3.0380  -0.3000
  v  -0.1275   3.0380  -0.3000
  v  -0.2130   3.0665  -0.3000
  v  -0.2700   3.0665  -0.3000
  v  -0.2985   3.0950  -0.3000
  v  -0.2415   3.0380  -0.3000
  v  -0.2415   3.0665  -0.3000
  v  -0.2700   3.0950  -0.3000
  v   0.5000   0.0000   0.5000
  v   0.1860   3.0950   0.3000
  v   0.1575   3.0665   0.3000
  v   0.1860   3.0665   0.3000
  v   0.1575   3.0950   0.3000
  v   0.2145   3.0665   0.3000
  v   0.1290   3.0380   0.3000
  v   0.2145   3.0380   0.3000
  v   0.1290   3.0665   0.3000
  v   0.0720   3.0950   0.3000
  v   0.0435   3.0665   0.3000
  v   0.0720   3.0665   0.3000
  v   0.0435   3.0950   0.3000
  v   0.1005   3.0665   0.3000
  v   0.0150   3.0380   0.3000
  v   0.1005   3.0380   0.3000
  v   0.0150   3.0665   0.3000
  v  -0.0420   3.0950   0.3000
  v  -0.0705   3.0665   0.3000
  v  -0.0420   3.0665   0.3000
  v  -0.0705   3.0950   0.3000
  v  -0.0135   3.0665   0.3000
  v  -0.0990   3.0380   0.3000
  v  -0.0135   3.0380   0.3000
  v  -0.0990   3.0665   0.3000
  v  -0.1560   3.0950   0.3000
  v  -0.1845   3.0665   0.3000
  v  -0.1560   3.0665   0.3000
  v  -0.1845   3.0950   0.3000
  v  -0.1275   3.0665   0.3000
  v  -0.2130   3.0380   0.3000
  v  -0.1275   3.0380   0.3000
  v  -0.2130   3.0665   0.3000
  v  -0.2700   3.0665   0.3000
  v  -0.2985   3.0950   0.3000
  v  -0.2415   3.0380   0.3000
  v   0.2430   3.0380   0.3000
  v  -0.2415   3.0665   0.3000
  v  -0.2700   3.0950   0.3000
  v   0.2715   3.0665   0.3000
  v   0.3000   3.0950   0.3000
  v   0.2715   3.0950   0.3000
  v   0.2430   3.0665   0.3000
  v  -0.3000   3.0665  -0.1860
  v  -0.3000   3.0380  -0.2145
  v  -0.3000   3.0665  -0.2145
  v  -0.3000   3.0950  -0.1575
  v  -0.3000   3.0950  -0.1860
  v  -0.3000   3.0665  -0.0720
  v  -0.3000   3.0380  -0.1005
  v  -0.3000   3.0665  -0.1005
  v  -0.3000   3.0950  -0.0435
  v  -0.3000   3.0950  -0.0720
  v  -0.3000   3.0665   0.0420
  v  -0.3000   3.0380   0.0135
  v  -0.3000   3.0665   0.0135
  v  -0.3000   3.0950   0.0705
  v  -0.3000   3.0950   0.0420
  v  -0.3000   3.0665   0.1560
  v  -0.3000   3.0380   0.1275
  v  -0.3000   3.0665   0.1275
  v  -0.3000   3.0950   0.1845
  v  -0.3000   3.0950   0.1560
  v  -0.3000   3.0665   0.2700
  v  -0.3000   3.0380   0.2415
  v  -0.3000   3.0665   0.2415
  v  -0.3000   3.0950   0.2985
  v  -0.3000   3.0950   0.2700
  v  -0.3000   3.0950  -0.2715
  v  -0.3000   3.0950  -0.3000
  v  -0.3000   3.0665  -0.2715
  v  -0.3000   3.0380  -0.2430
  v  -0.3000   3.0665  -0.2430
  v  -0.3000   3.0380  -0.1290
  v  -0.3000   3.0665  -0.1575
  v  -0.3000   3.0665  -0.1290
  v  -0.3000   3.0380  -0.0150
  v  -0.3000   3.0665  -0.0435
  v  -0.3000   3.0665  -0.0150
  v  -0.3000   3.0380   0.0990
  v  -0.3000   3.0665   0.0705
  v  -0.3000   3.0665   0.0990
  v  -0.3000   3.0380   0.2130
  v  -0.3000   3.0665   0.1845
  v  -0.3000   3.0665   0.2130
#  176 elements
  vt   0.0000   0.0000 0.0000
  vt   0.0000   0.0000 0.0000
  vt   0.0000   0.0000 0.0000
  vt   0.0000   0.0000 0.0000
  vt   0.0000   0.0000 0.0000
  vt   0.0000   0.0000 0.0000
  vt   0.0000   0.0000 0.0000
  vt   0.0000   0.0000 0.0000
  vt   0.0000   0.0000 0.0000
  vt   0.0000   0.0000 0.0000
  vt   0.0000   0.0000 0.0000
  vt   0.0000   0.0000 0.0000
  vt   0.0000   0.0000 0.0000
  vt   0.0000   0.0000 0.0000
  vt   0.0000   0.0000 0.0000
  vt   0.0000   0.0000 0.0000
  vt   0.0000   0.0000 0.0000
  vt   0.0000   0.0000 0.0000
  vt   0.0000   0.0000 0.0000
  vt   0.0000   0.0000 0.0000
  vt   0.0000   0.0000 0.0000
  vt   0.0000   0.0000 0.0000
  vt   0.0000   0.0000 0.0000
  vt   0.0000   0.0000 0.0000
  vt   0.0000   0.0000 0.0000
  vt   0.0000   0.0000 0.0000
  vt   0.0000   0.0000 0.0000
  vt   0.0000   0.0000 0.0000
  vt   0.0000   0.0000 0.0000
  vt   0.0000   0.0000 0.0000
  vt   0.0000   0.0000 0.0000
  vt   0.0000   0.0000 0.0000
  vt   0.0000   0.0000 0.0000
  vt   0.0000   0.0000 0.0000
  vt   0.0000   0.0000 0.0000
  vt   0.0000   0.0000 0.0000
  vt   0.0000   0.0000 0.0000
  vt   0.0000   0.0000 0.0000
  vt   0.0000   0.0000 0.0000
  vt   0.0000   0.0000 0.0000
  vt   0.0000   0.0000 0.0000
  vt   0.0000   0.0000 0.0000
  vt   0.0000   0.0000 0.0000
  vt   0.0000   0.0000 0.0000
  vt   0.0000   0.0000 0.0000
  vt   0.0000   0.0000 0.0000
  vt   0.0000   0.0000 0.0000
  vt   0.0000   0.0000 0.0000
  vt   0.0000   0.0000 0.0000
  vt   0.0000   0.0000 0.0000
  vt   0.0000   0.0000 0.0000
  vt   0.0000   0.0000 0.0000
  vt   0.0000   0.0000 0.0000
  vt   0.0000   0.0000 0.0000
  vt   0.0000   0.0000 0.0000
  vt   0.0000   0.0000 0.0000
  vt   0.0000   0.0000 0.0000
  vt   0.0000   0.0000 0.0000
  vt   0.0000   0.0000 0.0000
  vt   0.0000   0.0000 0.0000
  vt   0.0000   0.0000 0.0000
  vt   0.0000   0.0000 0.0000
  vt   0.0000   0.0000 0.0000
  vt   0.0000   0.0000 0.0000
  vt   0.0000   0.0000 0.0000
  vt   0.0000   0.0000 0.0000
  vt   0.0000   0.0000 0.0000
  vt   0.0000   0.0000 0.0000
  vt   0.0000   0.0000 0.0000
  vt   0.0000   0.0000 0.0000
  vt   0.0000   0.0000 0.0000
  vt   0.0000   0.0000 0.0000
  vt   0.0000   0.0000 0.0000
  vt   0.0000   0.0000 0.0000
  vt   0.0000   0.0000 0.0000
  vt   0.0000   0.0000 0.0000
  vt   0.0000   0.0000 0.0000
  vt   0.0000   0.0000 0.0000
  vt   0.0000   0.0000 0.0000
  vt   0.0000   0.0000 0.0000
  vt   0.0000   0.0000 0.0000
  vt   0.0000   0.0000 0.0000
  vt   0.0000   0.0000 0.0000
  vt   0.0000   0.0000 0.0000
  vt   0.0000   0.0000 0.0000
  vt   0.0000   0.0000 0.0000
  vt   0.0000   0.0000 0.0000
  vt   0.0000   0.0000 0.0000
  vt   0.0000   0.0000 0.0000
  vt   0.0000   0.0000 0.0000
  vt   0.0000   0.0000 0.0000
  vt   0.0000   0.0000 0.0000
  vt   0.0000   0.0000 0.0000
  vt   0.0000   0.0000 0.0000
  vt   0.0000   0.0000 0.0000
  vt   0.0000   0.0000 0.0000
  vt   0.0000   0.0000 0.0000
  vt   0.0000   0.0000 0.0000
  vt   0.0000   0.0000 0.0000
  vt   0.0000   0.0000 0.0000
  vt   0.0000   0.0000 0.0000
  vt   0.0000   0.0000 0.0000
  vt   0.0000   0.0000 0.0000
  vt   0.0000   0.0000 0.0000
  vt   0.0000   0.0000 0.0000
  vt   0.0000   0.0000 0.0000
  vt   0.0000   0.0000 0.0000
  vt   0.0000   0.0000 0.0000
  vt   0.0000   0.0000 0.0000
  vt   0.0000   0.0000 0.0000
  vt   0.0000   0.0000 0.0000
  vt   0.0000   0.0000 0.0000
  vt   0.0000   0.0000 0.0000
  vt   0.0000   0.0000 0.0000
  vt   0.0000   0.0000 0.0000
  vt   0.0000   0.0000 0.0000
  vt   0.0000   0.0000 0.0000
  vt   0.0000   0.0000 0.0000
  vt   0.0000   0.0000 0.0000
  vt   0.0000   0.0000 0.0000
  vt   0.0000   0.0000 0.0000
  vt   0.0000   0.0000 0.0000
  vt   0.0000   0.0000 0.0000
  vt   0.0000   0.0000 0.0000
  vt   0.0000   0.0000 0.0000
  vt   0.0000   0.0000 0.0000
  vt   0.0000   0.0000 0.0000
  vt   0.0000   0.0000 0.0000
  vt   0.0000   0.0000 0.0000
  vt   0.0000   0.0000 0.0000
  vt   0.0000   0.0000 0.0000
  vt   0.0000   0.0000 0.0000
  vt   0.0000   0.0000 0.0000
  vt   0.0000   0.0000 0.0000
  vt   0.0000   0.0000 0.0000
  vt   0.0000   0.0000 0.0000
  vt   0.0000   0.0000 0.0000
  vt   0.0000   0.0000 0.0000
  vt   0.0000   0.0000 0.0000
  vt   0.0000   0.0000 0.0000
  vt   0.0000   0.0000 0.0000
  vt   0.0000   0.0000 0.0000
  vt   0.0000   0.0000 0.0000
  vt   0.0000   0.0000 0.0000
  vt   0.0000   0.0000 0.0000
  vt   0.0000   0.0000 0.0000
  vt   0.0000   0.0000 0.0000
  vt   0.0000   0.0000 0.0000
  vt   0.0000   0.0000 0.0000
  vt   0.0000   0.0000 0.0000
  vt   0.0000   0.0000 0.0000
  vt   0.0000   0.0000 0.0000
  vt   0.0000   0.0000 0.0000
  vt   0.0000   0.0000 0.0000
  vt   0.0000   0.0000 0.0000
  vt   0.0000   0.0000 0.0000
  vt   0.0000   0.0000 0.0000
  vt   0.0000   0.0000 0.0000
  vt   0.0000   0.0000 0.0000
  vt   0.0000   0.0000 0.0000
  vt   0.0000   0.0000 0.0000
  vt   0.0000   0.0000 0.0000
  vt   0.0000   0.0000 0.0000
  vt   0.0000   0.0000 0.0000
  vt   0.0000   0.0000 0.0000
  vt   0.0000   0.0000 0.0000
  vt   0.0000   0.0000 0.0000
  vt   0.0000   0.0000 0.0000
  vt   0.0000   0.0000 0.0000
  vt   0.0000   0.0000 0.0000
  vt   0.0000   0.0000 0.0000
  vt   0.0000   0.0000 0.0000
  vt   0.0000   0.0000 0.0000
  vt   0.0000   0.0000 0.0000
  vt   0.0000   0.0000 0.0000
  vt   0.0000   0.0000 0.0000
#  176 elements
  vn   0.0000  -1.0000   0.0000
  vn   0.0000   1.0000   0.0000
  vn  -0.0000   1.0000  -0.0000
  vn   0.9978  -0.0665   0.0000
  vn  -0.9978   0.0665  -0.0000
  vn   0.0000  -0.0665   0.9978
  vn  -0.0000   0.0665  -0.9978
  vn  -1.0000  -0.0000  -0.0000
  vn   1.0000   0.0000   0.0000
  vn  -0.0000  -0.0000  -1.0000
  vn   0.0000   0.0000   1.0000
  vn   0.0000  -0.0665  -0.9978
  vn  -0.0000   0.0665   0.9978
  vn  -0.9978  -0.0665   0.0000
  vn   0.9978   0.0665  -0.0000
  vn   0.0000  -0.0000  -1.0000
  vn  -0.0000   0.0000   1.0000
  vn  -1.0000   0.0000  -0.0000
  vn   1.0000  -0.0000   0.0000
#  19 elements
#  360 faces
usemtl _main_blankgrey_png
f 3/3/1 2/2/1 1/1/1
f 1/1/2 2/2/2 3/3/2
f 5/5/1 3/3/1 4/4/1
f 4/4/3 3/3/3 5/5/3
f 5/5/1 2/2/1 3/3/1
f 3/3/2 2/2/2 5/5/2
f 3/3/1 1/1/1 4/4/1
f 4/4/3 1/1/3 3/3/3
f 7/7/4 2/2/4 6/6/4
f 5/5/4 6/6/4 2/2/4
f 6/6/5 2/2/5 7/7/5
f 2/2/5 6/6/5 5/5/5
f 7/7/6 8/8/6 2/2/6
f 1/1/6 2/2/6 8/8/6
f 2/2/7 8/8/7 7/7/7
f 8/8/7 2/2/7 1/1/7
f 11/11/8 10/10/8 9/9/8
f 13/13/8 9/9/8 12/12/8
f 16/16/8 15/15/8 14/14/8
f 18/18/8 14/14/8 17/17/8
f 21/21/8 20/20/8 19/19/8
f 23/23/8 19/19/8 22/22/8
f 26/26/8 25/25/8 24/24/8
f 28/28/8 24/24/8 27/27/8
f 31/31/8 30/30/8 29/29/8
f 33/33/8 29/29/8 32/32/8
f 35/35/8 1/1/8 34/34/8
f 36/36/8 34/34/8 1/1/8
f 37/37/8 36/36/8 1/1/8
f 4/4/8 37/37/8 1/1/8
f 38/38/8 36/36/8 37/37/8
f 10/10/8 37/37/8 4/4/8
f 39/39/8 10/10/8 4/4/8
f 9/9/8 10/10/8 39/39/8
f 40/40/8 9/9/8 39/39/8
f 12/12/8 9/9/8 40/40/8
f 41/41/8 40/40/8 39/39/8
f 15/15/8 39/39/8 4/4/8
f 42/42/8 15/15/8 4/4/8
f 14/14/8 15/15/8 42/42/8
f 43/43/8 14/14/8 42/42/8
f 17/17/8 14/14/8 43/43/8
f 44/44/8 43/43/8 42/42/8
f 20/20/8 42/42/8 4/4/8
f 45/45/8 20/20/8 4/4/8
f 19/19/8 20/20/8 45/45/8
f 46/46/8 19/19/8 45/45/8
f 22/22/8 19/19/8 46/46/8
f 47/47/8 46/46/8 45/45/8
f 25/25/8 45/45/8 4/4/8
f 48/48/8 25/25/8 4/4/8
f 24/24/8 25/25/8 48/48/8
f 49/49/8 24/24/8 48/48/8
f 27/27/8 24/24/8 49/49/8
f 50/50/8 49/49/8 48/48/8
f 30/30/8 48/48/8 4/4/8
f 29/29/8 30/30/8 4/4/8
f 32/32/8 29/29/8 4/4/8
f 9/9/9 10/10/9 11/11/9
f 12/12/9 9/9/9 13/13/9
f 14/14/9 15/15/9 16/16/9
f 17/17/9 14/14/9 18/18/9
f 19/19/9 20/20/9 21/21/9
f 22/22/9 19/19/9 23/23/9
f 24/24/9 25/25/9 26/26/9
f 27/27/9 24/24/9 28/28/9
f 29/29/9 30/30/9 31/31/9
f 32/32/9 29/29/9 33/33/9
f 34/34/9 1/1/9 35/35/9
f 1/1/9 34/34/9 36/36/9
f 1/1/9 36/36/9 37/37/9
f 1/1/9 37/37/9 4/4/9
f 37/37/9 36/36/9 38/38/9
f 4/4/9 37/37/9 10/10/9
f 4/4/9 10/10/9 39/39/9
f 39/39/9 10/10/9 9/9/9
f 39/39/9 9/9/9 40/40/9
f 40/40/9 9/9/9 12/12/9
f 39/39/9 40/40/9 41/41/9
f 4/4/9 39/39/9 15/15/9
f 4/4/9 15/15/9 42/42/9
f 42/42/9 15/15/9 14/14/9
f 42/42/9 14/14/9 43/43/9
f 43/43/9 14/14/9 17/17/9
f 42/42/9 43/43/9 44/44/9
f 4/4/9 42/42/9 20/20/9
f 4/4/9 20/20/9 45/45/9
f 45/45/9 20/20/9 19/19/9
f 45/45/9 19/19/9 46/46/9
f 46/46/9 19/19/9 22/22/9
f 45/45/9 46/46/9 47/47/9
f 4/4/9 45/45/9 25/25/9
f 4/4/9 25/25/9 48/48/9
f 48/48/9 25/25/9 24/24/9
f 48/48/9 24/24/9 49/49/9
f 49/49/9 24/24/9 27/27/9
f 48/48/9 49/49/9 50/50/9
f 4/4/9 48/48/9 30/30/9
f 4/4/9 30/30/9 29/29/9
f 4/4/9 29/29/9 32/32/9
f 2/2/10 51/51/10 1/1/10
f 35/35/10 1/1/10 51/51/10
f 52/52/10 35/35/10 51/51/10
f 53/53/10 35/35/10 52/52/10
f 52/52/10 51/51/10 54/54/10
f 57/57/10 56/56/10 55/55/10
f 58/58/10 55/55/10 56/56/10
f 61/61/10 60/60/10 59/59/10
f 62/62/10 59/59/10 60/60/10
f 57/57/10 59/59/10 62/62/10
f 56/56/10 57/57/10 62/62/10
f 65/65/10 64/64/10 63/63/10
f 66/66/10 63/63/10 64/64/10
f 69/69/10 68/68/10 67/67/10
f 70/70/10 67/67/10 68/68/10
f 65/65/10 67/67/10 70/70/10
f 64/64/10 65/65/10 70/70/10
f 73/73/10 72/72/10 71/71/10
f 74/74/10 71/71/10 72/72/10
f 77/77/10 76/76/10 75/75/10
f 78/78/10 75/75/10 76/76/10
f 73/73/10 75/75/10 78/78/10
f 72/72/10 73/73/10 78/78/10
f 81/81/10 80/80/10 79/79/10
f 82/82/10 79/79/10 80/80/10
f 85/85/10 84/84/10 83/83/10
f 86/86/10 83/83/10 84/84/10
f 81/81/10 83/83/10 86/86/10
f 80/80/10 81/81/10 86/86/10
f 88/88/10 87/87/10 2/2/10
f 89/89/10 2/2/10 87/87/10
f 51/51/10 2/2/10 89/89/10
f 61/61/10 51/51/10 89/89/10
f 60/60/10 61/61/10 89/89/10
f 69/69/10 60/60/10 89/89/10
f 68/68/10 69/69/10 89/89/10
f 77/77/10 68/68/10 89/89/10
f 76/76/10 77/77/10 89/89/10
f 85/85/10 76/76/10 89/89/10
f 84/84/10 85/85/10 89/89/10
f 90/90/10 89/89/10 87/87/10
f 91/91/10 87/87/10 88/88/10
f 1/1/11 51/51/11 2/2/11
f 51/51/11 1/1/11 35/35/11
f 51/51/11 35/35/11 52/52/11
f 52/52/11 35/35/11 53/53/11
f 54/54/11 51/51/11 52/52/11
f 55/55/11 56/56/11 57/57/11
f 56/56/11 55/55/11 58/58/11
f 59/59/11 60/60/11 61/61/11
f 60/60/11 59/59/11 62/62/11
f 62/62/11 59/59/11 57/57/11
f 62/62/11 57/57/11 56/56/11
f 63/63/11 64/64/11 65/65/11
f 64/64/11 63/63/11 66/66/11
f 67/67/11 68/68/11 69/69/11
f 68/68/11 67/67/11 70/70/11
f 70/70/11 67/67/11 65/65/11
f 70/70/11 65/65/11 64/64/11
f 71/71/11 72/72/11 73/73/11
f 72/72/11 71/71/11 74/74/11
f 75/75/11 76/76/11 77/77/11
f 76/76/11 75/75/11 78/78/11
f 78/78/11 75/75/11 73/73/11
f 78/78/11 73/73/11 72/72/11
f 79/79/11 80/80/11 81/81/11
f 80/80/11 79/79/11 82/82/11
f 83/83/11 84/84/11 85/85/11
f 84/84/11 83/83/11 86/86/11
f 86/86/11 83/83/11 81/81/11
f 86/86/11 81/81/11 80/80/11
f 2/2/11 87/87/11 88/88/11
f 87/87/11 2/2/11 89/89/11
f 89/89/11 2/2/11 51/51/11
f 89/89/11 51/51/11 61/61/11
f 89/89/11 61/61/11 60/60/11
f 89/89/11 60/60/11 69/69/11
f 89/89/11 69/69/11 68/68/11
f 89/89/11 68/68/11 77/77/11
f 89/89/11 77/77/11 76/76/11
f 89/89/11 76/76/11 85/85/11
f 89/89/11 85/85/11 84/84/11
f 87/87/11 89/89/11 90/90/11
f 88/88/11 87/87/11 91/91/11
f 92/92/12 6/6/12 4/4/12
f 5/5/12 4/4/12 6/6/12
f 4/4/13 6/6/13 92/92/13
f 6/6/13 4/4/13 5/5/13
f 8/8/14 92/92/14 1/1/14
f 4/4/14 1/1/14 92/92/14
f 1/1/15 92/92/15 8/8/15
f 92/92/15 1/1/15 4/4/15
f 95/95/16 94/94/16 93/93/16
f 96/96/16 93/93/16 94/94/16
f 99/99/16 98/98/16 97/97/16
f 100/100/16 97/97/16 98/98/16
f 95/95/16 97/97/16 100/100/16
f 94/94/16 95/95/16 100/100/16
f 103/103/16 102/102/16 101/101/16
f 104/104/16 101/101/16 102/102/16
f 107/107/16 106/106/16 105/105/16
f 108/108/16 105/105/16 106/106/16
f 103/103/16 105/105/16 108/108/16
f 102/102/16 103/103/16 108/108/16
f 111/111/16 110/110/16 109/109/16
f 112/112/16 109/109/16 110/110/16
f 115/115/16 114/114/16 113/113/16
f 116/116/16 113/113/16 114/114/16
f 111/111/16 113/113/16 116/116/16
f 110/110/16 111/111/16 116/116/16
f 119/119/16 118/118/16 117/117/16
f 120/120/16 117/117/16 118/118/16
f 123/123/16 122/122/16 121/121/16
f 124/124/16 121/121/16 122/122/16
f 119/119/16 121/121/16 124/124/16
f 118/118/16 119/119/16 124/124/16
f 126/126/16 125/125/16 5/5/16
f 127/127/16 5/5/16 125/125/16
f 4/4/16 5/5/16 127/127/16
f 128/128/16 4/4/16 127/127/16
f 99/99/16 128/128/16 127/127/16
f 98/98/16 99/99/16 127/127/16
f 107/107/16 98/98/16 127/127/16
f 106/106/16 107/107/16 127/127/16
f 115/115/16 106/106/16 127/127/16
f 114/114/16 115/115/16 127/127/16
f 123/123/16 114/114/16 127/127/16
f 122/122/16 123/123/16 127/127/16
f 129/129/16 127/127/16 125/125/16
f 130/130/16 125/125/16 126/126/16
f 128/128/16 131/131/16 4/4/16
f 132/132/16 4/4/16 131/131/16
f 133/133/16 132/132/16 131/131/16
f 131/131/16 128/128/16 134/134/16
f 93/93/17 94/94/17 95/95/17
f 94/94/17 93/93/17 96/96/17
f 97/97/17 98/98/17 99/99/17
f 98/98/17 97/97/17 100/100/17
f 100/100/17 97/97/17 95/95/17
f 100/100/17 95/95/17 94/94/17
f 101/101/17 102/102/17 103/103/17
f 102/102/17 101/101/17 104/104/17
f 105/105/17 106/106/17 107/107/17
f 106/106/17 105/105/17 108/108/17
f 108/108/17 105/105/17 103/103/17
f 108/108/17 103/103/17 102/102/17
f 109/109/17 110/110/17 111/111/17
f 110/110/17 109/109/17 112/112/17
f 113/113/17 114/114/17 115/115/17
f 114/114/17 113/113/17 116/116/17
f 116/116/17 113/113/17 111/111/17
f 116/116/17 111/111/17 110/110/17
f 117/117/17 118/118/17 119/119/17
f 118/118/17 117/117/17 120/120/17
f 121/121/17 122/122/17 123/123/17
f 122/122/17 121/121/17 124/124/17
f 124/124/17 121/121/17 119/119/17
f 124/124/17 119/119/17 118/118/17
f 5/5/17 125/125/17 126/126/17
f 125/125/17 5/5/17 127/127/17
f 127/127/17 5/5/17 4/4/17
f 127/127/17 4/4/17 128/128/17
f 127/127/17 128/128/17 99/99/17
f 127/127/17 99/99/17 98/98/17
f 127/127/17 98/98/17 107/107/17
f 127/127/17 107/107/17 106/106/17
f 127/127/17 106/106/17 115/115/17
f 127/127/17 115/115/17 114/114/17
f 127/127/17 114/114/17 123/123/17
f 127/127/17 123/123/17 122/122/17
f 125/125/17 127/127/17 129/129/17
f 126/126/17 125/125/17 130/130/17
f 4/4/17 131/131/17 128/128/17
f 131/131/17 4/4/17 132/132/17
f 131/131/17 132/132/17 133/133/17
f 134/134/17 128/128/17 131/131/17
f 137/137/18 136/136/18 135/135/18
f 139/139/18 135/135/18 138/138/18
f 142/142/18 141/141/18 140/140/18
f 144/144/18 140/140/18 143/143/18
f 147/147/18 146/146/18 145/145/18
f 149/149/18 145/145/18 148/148/18
f 152/152/18 151/151/18 150/150/18
f 154/154/18 150/150/18 153/153/18
f 157/157/18 156/156/18 155/155/18
f 159/159/18 155/155/18 158/158/18
f 161/161/18 2/2/18 160/160/18
f 162/162/18 160/160/18 2/2/18
f 163/163/18 162/162/18 2/2/18
f 5/5/18 163/163/18 2/2/18
f 164/164/18 162/162/18 163/163/18
f 136/136/18 163/163/18 5/5/18
f 165/165/18 136/136/18 5/5/18
f 135/135/18 136/136/18 165/165/18
f 166/166/18 135/135/18 165/165/18
f 138/138/18 135/135/18 166/166/18
f 167/167/18 166/166/18 165/165/18
f 141/141/18 165/165/18 5/5/18
f 168/168/18 141/141/18 5/5/18
f 140/140/18 141/141/18 168/168/18
f 169/169/18 140/140/18 168/168/18
f 143/143/18 140/140/18 169/169/18
f 170/170/18 169/169/18 168/168/18
f 146/146/18 168/168/18 5/5/18
f 171/171/18 146/146/18 5/5/18
f 145/145/18 146/146/18 171/171/18
f 172/172/18 145/145/18 171/171/18
f 148/148/18 145/145/18 172/172/18
f 173/173/18 172/172/18 171/171/18
f 151/151/18 171/171/18 5/5/18
f 174/174/18 151/151/18 5/5/18
f 150/150/18 151/151/18 174/174/18
f 175/175/18 150/150/18 174/174/18
f 153/153/18 150/150/18 175/175/18
f 176/176/18 175/175/18 174/174/18
f 156/156/18 174/174/18 5/5/18
f 155/155/18 156/156/18 5/5/18
f 158/158/18 155/155/18 5/5/18
f 135/135/19 136/136/19 137/137/19
f 138/138/19 135/135/19 139/139/19
f 140/140/19 141/141/19 142/142/19
f 143/143/19 140/140/19 144/144/19
f 145/145/19 146/146/19 147/147/19
f 148/148/19 145/145/19 149/149/19
f 150/150/19 151/151/19 152/152/19
f 153/153/19 150/150/19 154/154/19
f 155/155/19 156/156/19 157/157/19
f 158/158/19 155/155/19 159/159/19
f 160/160/19 2/2/19 161/161/19
f 2/2/19 160/160/19 162/162/19
f 2/2/19 162/162/19 163/163/19
f 2/2/19 163/163/19 5/5/19
f 163/163/19 162/162/19 164/164/19
f 5/5/19 163/163/19 136/136/19
f 5/5/19 136/136/19 165/165/19
f 165/165/19 136/136/19 135/135/19
f 165/165/19 135/135/19 166/166/19
f 166/166/19 135/135/19 138/138/19
f 165/165/19 166/166/19 167/167/19
f 5/5/19 165/165/19 141/141/19
f 5/5/19 141/141/19 168/168/19
f 168/168/19 141/141/19 140/140/19
f 168/168/19 140/140/19 169/169/19
f 169/169/19 140/140/19 143/143/19
f 168/168/19 169/169/19 170/170/19
f 5/5/19 168/168/19 146/146/19
f 5/5/19 146/146/19 171/171/19
f 171/171/19 146/146/19 145/145/19
f 171/171/19 145/145/19 172/172/19
f 172/172/19 145/145/19 148/148/19
f 171/171/19 172/172/19 173/173/19
f 5/5/19 171/171/19 151/151/19
f 5/5/19 151/151/19 174/174/19
f 174/174/19 151/151/19 150/150/19
f 174/174/19 150/150/19 175/175/19
f 175/175/19 150/150/19 153/153/19
f 174/174/19 175/175/19 176/176/19
f 5/5/19 174/174/19 156/156/19
f 5/5/19 156/156/19 155/155/19
f 5/5/19 155/155/19 158/158/19